<svg width="11" height="11" viewBox="0 0 11 11" fill="none" xmlns="http://www.w3.org/2000/svg">
<path d="M9.83301 4.41683H6.58301V1.16683C6.58301 0.568829 6.09767 0.0834961 5.49967 0.0834961C4.90167 0.0834961 4.41634 0.568829 4.41634 1.16683V4.41683H1.16634C0.568341 4.41683 0.0830078 4.90216 0.0830078 5.50016C0.0830078 6.09816 0.568341 6.5835 1.16634 6.5835H4.41634V9.8335C4.41634 10.4315 4.90167 10.9168 5.49967 10.9168C6.09767 10.9168 6.58301 10.4315 6.58301 9.8335V6.5835H9.83301C10.431 6.5835 10.9163 6.09816 10.9163 5.50016C10.9163 4.90216 10.431 4.41683 9.83301 4.41683Z" fill="#236A5A"/>
</svg>
